# xmcd CD database file
#
# Track frame offsets:
#	150
#	23377
#	43100
#	66427
#
# Disc length: 1185 seconds
#
# Revision: 2
# Processed by: cddbd v1.5.1PL0 Copyright (c) Steve Scherf et al.
# Submitted via: CDex 1.51
#
DISCID=2c049f04
DTITLE=モーニング娘。 - Early Single Box DISC.5 真夏の光線
DYEAR=2004
DGENRE=Hello!Project
TTITLE0=真夏の光線
TTITLE1=恋の始発列車
TTITLE2=真夏の光線 (Instrumental)
TTITLE3=真夏の光線 (Early Version)
EXTD=YEAR: 2004
EXTT0=
EXTT1=
EXTT2=
EXTT3=
PLAYORDER=
